<svg width="14" height="16" viewBox="0 0 14 16" fill="none" xmlns="http://www.w3.org/2000/svg">
<path d="M13 10.7605V5.18226C12.9998 4.93771 12.938 4.69752 12.821 4.48579C12.704 4.27406 12.5358 4.09824 12.3333 3.97596L7.66667 1.18684C7.46397 1.06444 7.23405 1 7 1C6.76595 1 6.53603 1.06444 6.33333 1.18684L1.66667 3.97596C1.46418 4.09824 1.29599 4.27406 1.17897 4.48579C1.06196 4.69752 1.00024 4.93771 1 5.18226V10.7605C1.00024 11.0051 1.06196 11.2453 1.17897 11.457C1.29599 11.6687 1.46418 11.8445 1.66667 11.9668L6.33333 14.7559C6.53603 14.8783 6.76595 14.9428 7 14.9428C7.23405 14.9428 7.46397 14.8783 7.66667 14.7559L12.3333 11.9668C12.5358 11.8445 12.704 11.6687 12.821 11.457C12.938 11.2453 12.9998 11.0051 13 10.7605Z" stroke="#3A3A3A" stroke-width="1.2" stroke-linecap="round" stroke-linejoin="round"/>
<path d="M1.17969 4.45715L6.99969 7.97843L12.8197 4.45715" stroke="#3A3A3A" stroke-width="1.2" stroke-linecap="round" stroke-linejoin="round"/>
<path d="M7 15V7.97144" stroke="#3A3A3A" stroke-width="1.2" stroke-linecap="round" stroke-linejoin="round"/>
</svg>
